<svg xmlns="http://www.w3.org/2000/svg" width="27" height="28" viewBox="0 0 27 28">
    <g transform="translate(-.027 .054)">
        <rect data-name="Rectangle 95" width="27" height="28" rx="13.5" transform="translate(.027 -.054)" style="fill:none"/>
        <path data-name="Path 79" d="M22.118 13.52c0-.265-.012-.518-.035-.783l2.143-1.624a1.159 1.159 0 0 0 .3-1.5l-2.154-3.719a1.137 1.137 0 0 0-1.44-.484l-2.477 1.048a8.74 8.74 0 0 0-1.348-.783l-.334-2.661A1.155 1.155 0 0 0 15.633 2h-4.3a1.158 1.158 0 0 0-1.152 1.014l-.332 2.661a8.74 8.74 0 0 0-1.349.783L6.025 5.41a1.137 1.137 0 0 0-1.44.484L2.43 9.626a1.161 1.161 0 0 0 .3 1.5l2.143 1.624a8.467 8.467 0 0 0 0 1.555L2.73 15.928a1.159 1.159 0 0 0-.3 1.5l2.154 3.721a1.137 1.137 0 0 0 1.44.484L8.5 20.582a8.74 8.74 0 0 0 1.348.783l.334 2.661a1.155 1.155 0 0 0 1.141 1.014h4.3a1.155 1.155 0 0 0 1.141-1.014l.334-2.661a8.74 8.74 0 0 0 1.348-.783l2.477 1.048a1.137 1.137 0 0 0 1.44-.484l2.154-3.721a1.161 1.161 0 0 0-.3-1.5L22.072 14.3a5.956 5.956 0 0 0 .046-.78zm-8.594 4.032a4.032 4.032 0 1 1 4.032-4.032 4.037 4.037 0 0 1-4.032 4.032z" transform="translate(.535 .642)" style="fill:#fff"/>
    </g>
</svg>
