<svg xmlns="http://www.w3.org/2000/svg" width="24" height="24" viewBox="0 0 24 24">
    <g data-name="table_rows_black_24dp (1)">
        <path data-name="Rectangle 118" style="fill:none" d="M0 0h24v24H0z"/>
        <path data-name="Path 360" d="M19 8H5a2.006 2.006 0 0 1-2-2 2.006 2.006 0 0 1 2-2h14a2.006 2.006 0 0 1 2 2 2.006 2.006 0 0 1-2 2zm0 2H5a2.006 2.006 0 0 0-2 2 2.006 2.006 0 0 0 2 2h14a2.006 2.006 0 0 0 2-2 2.006 2.006 0 0 0-2-2zm0 6H5a2.006 2.006 0 0 0-2 2 2.006 2.006 0 0 0 2 2h14a2.006 2.006 0 0 0 2-2 2.006 2.006 0 0 0-2-2z" style="fill:#fff" transform="translate(.037)"/>
    </g>
</svg>
