<svg xmlns="http://www.w3.org/2000/svg" width="135.162" height="22.962" viewBox="0 0 135.162 22.962">
    <defs>
        <style>
            .cls-1{fill:#fff}
        </style>
    </defs>
    <g id="Group_125" data-name="Group 125">
        <path id="Path_377" data-name="Path 377" class="cls-1" d="m-236.045 181.745 11.508 11.48 11.482-11.48v22.962h-3.791v-13.72l-7.691 7.663-11.508-11.566z" transform="translate(236.045 -181.745)"/>
        <path id="Path_378" data-name="Path 378" class="cls-1" d="m-221.279 200.861-3.819 3.846v-22.962l3.819 3.788z" transform="translate(252.074 -181.745)"/>
        <path id="Path_379" data-name="Path 379" class="cls-1" d="m-217.989 200.861-3.817 3.846v-22.962l3.817 3.788z" transform="translate(256.588 -181.745)"/>
        <path id="Path_380" data-name="Path 380" class="cls-1" d="m-207.355 196.47 4.707 8.237h-4.391L-213.7 193.2l3.415.029a3.644 3.644 0 0 0 2.671-1.118 3.651 3.651 0 0 0 1.146-2.726 3.569 3.569 0 0 0-1.146-2.671 3.646 3.646 0 0 0-2.671-1.12h-7.663l-.431-.431-1.981-3.415h10.075a7.372 7.372 0 0 1 5.4 2.24 7.418 7.418 0 0 1 2.238 5.4 7.256 7.256 0 0 1-1.353 4.327 7.418 7.418 0 0 1-3.355 2.755z" transform="translate(255.139 -181.745)"/>
        <path id="Path_381" data-name="Path 381" class="cls-1" d="m-205.636 200.861-1.953 3.846h-4.248l11.48-22.962 7.663 15.325H-197l-3.36-6.744-3.386 6.744zm16.761 3.846h-4.279l-1.893-3.817h4.248z" transform="translate(265.838 -181.745)"/>
        <path id="Path_382" data-name="Path 382" class="cls-1" d="M-199.264 201.32a12.011 12.011 0 0 1-2.47-3.673 11.088 11.088 0 0 1-.917-4.422 11.258 11.258 0 0 1 .917-4.477 11.751 11.751 0 0 1 2.47-3.616 11.5 11.5 0 0 1 3.673-2.467 11.011 11.011 0 0 1 4.449-.919 11 11 0 0 1 4.449.89 11.936 11.936 0 0 1 3.673 2.5l-2.726 2.671a7.437 7.437 0 0 0-5.4-2.211 7.88 7.88 0 0 0-2.984.574 7.235 7.235 0 0 0-2.441 1.666 7.785 7.785 0 0 0-1.637 2.41 7.538 7.538 0 0 0-.6 2.984 7.541 7.541 0 0 0 .6 2.987 7.4 7.4 0 0 0 1.666 2.41 7.408 7.408 0 0 0 2.412 1.666 8 8 0 0 0 2.984.574l4.449 2.955a11 11 0 0 1-4.449.89 11.014 11.014 0 0 1-4.449-.919 11.991 11.991 0 0 1-3.669-2.473z" transform="translate(279.614 -181.745)"/>
        <path id="Path_383" data-name="Path 383" class="cls-1" d="M-189.4 181.745v13.921l-3.817 3.846v-17.767zm11.48 19.116v3.846h-15.3l3.817-3.846z" transform="translate(293.793 -181.745)"/>
        <path id="Path_384" data-name="Path 384" class="cls-1" d="M-170.107 181.745v3.846h-11.48l-3.819-3.846zm-11.48 9.587h11.48v3.817h-15.3v-3.817zm0 9.529h11.48v3.846h-15.3v-.316z" transform="translate(305.269 -181.745)"/>
    </g>
</svg>
