<svg xmlns="http://www.w3.org/2000/svg" xmlns:xlink="http://www.w3.org/1999/xlink" width="31.638" height="30.787" viewBox="0 0 31.638 30.787">
  <defs>
    <style>
      .cls-1 {
        fill: #b9953d;
        stroke: rgba(0,0,0,0);
      }

      .cls-2 {
        opacity: 0.5;
      }

      .cls-3 {
        clip-path: url(#clip-path);
      }
    </style>
    <clipPath id="clip-path">
      <rect id="Rectangle_350" data-name="Rectangle 350" class="cls-1" width="31.638" height="30.787"/>
    </clipPath>
  </defs>
  <g id="Group_2455" data-name="Group 2455" class="cls-2">
    <g id="Group_2454" data-name="Group 2454" class="cls-3">
      <path id="Path_21188" data-name="Path 21188" class="cls-1" d="M0,21.224c.125-.228.289-.442.573-.368a1.041,1.041,0,0,1,.437.329c.056.061.04.2.041.3,0,.514,0,1.029,0,1.593.357,0,.7,0,1.047,0,.416,0,.665.2.669.519s-.25.531-.656.534c-.339,0-.678,0-1.038,0v4.214c.241,0,.484,0,.727,0,.4.007.626.2.628.527s-.223.52-.621.526c-.235,0-.471,0-.731,0V33.63c.386,0,.782-.006,1.178,0a.486.486,0,0,1,.5.422A.467.467,0,0,1,2.5,34.6a.934.934,0,0,1-.386.081c-.338.011-.677,0-1.037,0V48.849H30.81a2.7,2.7,0,0,1,.37.008.523.523,0,0,1-.009,1.038,2.161,2.161,0,0,1-.278.007q-15.076,0-30.153.005A.721.721,0,0,1,0,49.529Z" transform="translate(0 -19.12)"/>
      <path id="Path_21189" data-name="Path 21189" class="cls-1" d="M55.01,130.425q0,4.311,0,8.621c0,.573-.163.737-.732.737H51.127c-.568,0-.735-.167-.735-.738q0-7.03,0-14.06c0-.124,0-.248-.009-.37a.476.476,0,0,0-.467-.45.494.494,0,0,0-.551.39,1.882,1.882,0,0,0-.026.4q0,7.015,0,14.029c0,.664-.135.8-.788.8h-8.4c-.574,0-.739-.162-.74-.73,0-.937,0-1.875,0-2.812,0-.358-.144-.547-.416-.6-.375-.066-.633.164-.636.594-.008.845,0,1.689,0,2.534,0,.956-.054,1.009-1.013,1.009H31.154c-.566,0-.732-.168-.732-.739q0-3.183,0-6.366c0-.465-.328-.716-.719-.566a.529.529,0,0,0-.334.567c0,.845,0,1.689,0,2.534q0,1.947,0,3.894c0,.492-.181.674-.668.675q-1.282,0-2.564,0c-.466,0-.657-.191-.657-.659,0-1.9,0-3.791,0-5.686a.709.709,0,0,1,.359-.664c.95-.6,1.888-1.212,2.845-1.8a.881.881,0,0,1,.574-.1,3.107,3.107,0,0,0,1.7-.142.877.877,0,0,1,.585,0c1.482.614,2.952,1.254,4.43,1.877a.846.846,0,0,1,.464.538,2.5,2.5,0,0,0,2.471,1.6,2.575,2.575,0,0,0,2.465-1.766c.094-.318.064-.672.127-1a1.265,1.265,0,0,1,.228-.605q3.8-4.147,7.628-8.265a.969.969,0,0,1,.582-.267A2.682,2.682,0,0,0,52,121.736a.86.86,0,0,1,.639-.37c.54-.072,1.077-.171,1.617-.246s.748.114.749.653q0,4.326,0,8.652" transform="translate(-23.372 -111.109)"/>
      <path id="Path_21190" data-name="Path 21190" class="cls-1" d="M70.328,7.5a7.51,7.51,0,1,1,7.478,7.528A7.514,7.514,0,0,1,70.328,7.5M80.334,9.213a1.75,1.75,0,0,0-.958-1.738,4.736,4.736,0,0,0-.806-.3c-.553-.156-1.124-.254-1.665-.443a.728.728,0,0,1-.245-1.264,1.471,1.471,0,0,1,.378-.261,1.8,1.8,0,0,1,2.071.363.534.534,0,0,0,.768.075.5.5,0,0,0,.014-.766,2.613,2.613,0,0,0-.883-.643c-.482-.161-.723-.369-.658-.909a.474.474,0,0,0-.523-.487.518.518,0,0,0-.509.483,1.856,1.856,0,0,0,0,.339c.019.245-.1.346-.323.447a3.827,3.827,0,0,0-1.074.634,1.763,1.763,0,0,0,.533,2.947,4.126,4.126,0,0,0,.64.221c.516.136,1.04.246,1.554.388a.744.744,0,0,1,.629.672.865.865,0,0,1-.46.816,1.8,1.8,0,0,1-2.237-.253.533.533,0,0,0-.789-.078.513.513,0,0,0,.025.791,4.331,4.331,0,0,0,.981.671c.493.236.508.2.52.737.009.376.2.594.52.6s.52-.224.533-.589c.019-.543.019-.543.515-.732a2.076,2.076,0,0,0,1.454-1.715" transform="translate(-64.523 0)"/>
      <path id="Path_21191" data-name="Path 21191" class="cls-1" d="M50.021,91.118a1.655,1.655,0,0,1,1.513.66.281.281,0,0,0,.329.131c.923-.155,1.848-.3,2.773-.442.421-.067.707.1.752.435.043.318-.166.539-.587.607-.9.145-1.808.289-2.713.426a.366.366,0,0,0-.349.273,1.548,1.548,0,0,1-1.9,1.007.317.317,0,0,0-.37.106q-4.331,4.7-8.663,9.407a.413.413,0,0,0-.072.339,1.57,1.57,0,0,1-.406,1.7,1.467,1.467,0,0,1-1.6.343,1.576,1.576,0,0,1-1.069-1.386.414.414,0,0,0-.2-.282q-2.9-1.254-5.816-2.479a.415.415,0,0,0-.343.053,1.551,1.551,0,0,1-1.817.139.316.316,0,0,0-.386.023c-.768.5-1.538.994-2.319,1.473a.693.693,0,0,1-.509.117.636.636,0,0,1-.375-.417.7.7,0,0,1,.265-.53c.729-.5,1.479-.971,2.234-1.433a.552.552,0,0,0,.318-.577,1.569,1.569,0,0,1,3.134-.138.333.333,0,0,0,.247.33q2.881,1.222,5.759,2.454a.305.305,0,0,0,.38-.038,1.591,1.591,0,0,1,1.448-.321.418.418,0,0,0,.336-.1q4.356-4.7,8.7-9.414c.127-.137.095-.238.046-.381a1.553,1.553,0,0,1,1.256-2.089" transform="translate(-23.757 -83.597)"/>
    </g>
  </g>
</svg>
