<svg id="Group_137" data-name="Group 137" xmlns="http://www.w3.org/2000/svg" width="22.12" height="32.249" viewBox="0 0 22.12 32.249">
  <defs>
    <style>
      .cls-1 {
        fill: #ebba43;
      }
    </style>
  </defs>
  <path id="Path_106" data-name="Path 106" class="cls-1" d="M6590.9-126.751h-1.575a1.913,1.913,0,0,0-.242-.053,10.559,10.559,0,0,1-5.632-2.2,11.091,11.091,0,0,1-4.306-10.522,23,23,0,0,1,1.967-7.022,43.708,43.708,0,0,1,8.013-11.819,6.988,6.988,0,0,1,.767-.629h.441a1.119,1.119,0,0,1,.746,1.208c-.014,2.477-.007,4.954,0,7.431a3.163,3.163,0,0,0,.052.688,2.089,2.089,0,0,0,2.208,1.622,2.1,2.1,0,0,0,1.911-2.033.968.968,0,0,1,.708-.966.955.955,0,0,1,1.09.495,31.349,31.349,0,0,1,3.275,7.191,17.452,17.452,0,0,1,.79,6.8,11.069,11.069,0,0,1-8.661,9.561C6591.933-126.9,6591.412-126.834,6590.9-126.751Zm3.524-13.06.119.083c0,.543,0,1.086,0,1.629a.932.932,0,0,0,.9.974.924.924,0,0,0,.979-.933q.023-2.031,0-4.061a.918.918,0,0,0-.921-.932q-2.047-.021-4.093,0a.922.922,0,0,0-.9.747.93.93,0,0,0,.911,1.133c.561.013,1.123,0,1.666,0l-4,4.006a2.736,2.736,0,0,0-.192-.233c-.629-.633-1.256-1.267-1.893-1.891a.9.9,0,0,0-1.3-.083c-.774.739-1.541,1.488-2.267,2.273a.919.919,0,0,0,.488,1.5.955.955,0,0,0,.969-.306c.462-.468.928-.933,1.41-1.419.7.7,1.361,1.364,2.028,2.031a1,1,0,0,0,1.674,0q2.1-2.1,4.2-4.211A2.094,2.094,0,0,0,6594.42-139.811Z" transform="translate(-6579.059 159)"/>
</svg>
