<svg xmlns="http://www.w3.org/2000/svg" width="31.638" height="35.454" viewBox="0 0 31.638 35.454">
  <defs>
    <style>
      .cls-2 {
        fill: #ebba43;
      }
    </style>
  </defs>
  <g id="Group_140" data-name="Group 140">
    <path id="Path_120" data-name="Path 120" class="cls-2" d="M7078.19-51.328c0,2.114-.007,4.227,0,6.341a4.678,4.678,0,0,1-2.485,4.331q-5.41,3.15-10.817,6.3a4.674,4.674,0,0,1-5.051-.011q-5.4-3.163-10.817-6.3a4.639,4.639,0,0,1-2.466-4.265q0-6.4,0-12.793a4.66,4.66,0,0,1,2.485-4.291q5.443-3.166,10.883-6.338a4.55,4.55,0,0,1,4.855-.027q5.512,3.191,11.009,6.415a4.582,4.582,0,0,1,2.4,4.189C7078.194-55.629,7078.19-53.479,7078.19-51.328Zm-1.267-.017q0-3.226,0-6.453a3.334,3.334,0,0,0-1.745-3.061q-5.483-3.208-10.977-6.4a3.4,3.4,0,0,0-3.654,0q-5.423,3.164-10.852,6.319a3.511,3.511,0,0,0-1.88,3.286q.023,6.3,0,12.609a3.563,3.563,0,0,0,1.927,3.337q5.341,3.085,10.658,6.21a3.583,3.583,0,0,0,3.944,0q5.345-3.151,10.72-6.252A3.482,3.482,0,0,0,7076.929-45C7076.912-47.117,7076.924-49.231,7076.924-51.345Z" transform="translate(-7046.555 69.072)"/>
    <path id="Path_121" data-name="Path 121" class="cls-2" d="M7098.715-28.067c0,2.1-.014,4.2.006,6.3a2.308,2.308,0,0,1-1.242,2.188q-5.448,3.156-10.882,6.334a2.174,2.174,0,0,1-2.349-.008q-5.468-3.193-10.943-6.376a2.172,2.172,0,0,1-1.165-2q.005-6.451,0-12.9a2.17,2.17,0,0,1,1.162-2.005q5.474-3.185,10.943-6.377a2.188,2.188,0,0,1,2.379,0q5.4,3.158,10.816,6.3a2.355,2.355,0,0,1,1.282,2.241C7098.7-32.269,7098.715-30.168,7098.715-28.067ZM7079.727-31.8l-.074.018c-.065-.1-.132-.2-.195-.308l-2.308-3.843a.621.621,0,0,0-.74-.35.626.626,0,0,0-.476.668q0,3.1,0,6.193a.624.624,0,0,0,.645.7.62.62,0,0,0,.614-.689c.006-1.137,0-2.275,0-3.412v-.536c.132.2.207.311.274.422q1.154,1.921,2.306,3.844a.637.637,0,0,0,.744.349.584.584,0,0,0,.468-.628q0-3.134,0-6.268a.619.619,0,0,0-.6-.667.649.649,0,0,0-.658.659c-.008.123,0,.247,0,.371Zm4.455-3.248c1.027,0,2.013,0,3,0,.5,0,.781-.24.771-.645-.01-.386-.289-.616-.767-.617q-1.76,0-3.522,0c-.538,0-.761.23-.762.772q-.005,1.78,0,3.559c0,.865-.005,1.73,0,2.6a.609.609,0,0,0,.6.658.624.624,0,0,0,.653-.652c.01-.172,0-.346,0-.519v-1.977c.417,0,.786.005,1.155,0,.464-.009.742-.262.732-.654-.009-.375-.278-.6-.73-.609-.378,0-.758,0-1.157,0,0-.56,0-1.066,0-1.572C7084.167-34.808,7084.175-34.9,7084.182-35.049Zm8.214,0c.4,0,.748,0,1.092,0,.51,0,.788-.223.792-.623s-.278-.638-.779-.639q-1.742,0-3.484,0c-.49,0-.793.25-.791.638s.3.622.8.625c.365,0,.729,0,1.107,0,0,1.685,0,3.3,0,4.921,0,.272-.009.544.007.815a.6.6,0,0,0,.56.583.615.615,0,0,0,.678-.5,1.892,1.892,0,0,0,.02-.369q0-2.261,0-4.522Zm-12.669,12.682c0-1.234,0-2.468,0-3.7,0-.464-.253-.752-.634-.747s-.627.3-.627.762q0,3.665,0,7.331c0,.472.24.755.624.762.4.007.638-.277.638-.777Q7079.73-20.552,7079.727-22.366Zm5.035-3.188c1.026,0,2.052,0,3.078,0,.464,0,.757-.252.755-.632s-.3-.63-.76-.63q-3.04,0-6.081,0c-.461,0-.757.258-.755.636s.294.625.761.626C7082.759-25.553,7083.76-25.555,7084.761-25.555Zm7.9,2.53c.915,0,1.829,0,2.743,0,.5,0,.787-.235.78-.635s-.3-.627-.8-.628q-2.668,0-5.337,0c-.521,0-.829.246-.823.645s.3.617.8.618C7090.906-23.023,7091.783-23.025,7092.661-23.025Zm-.6,2.533c.9,0,1.8,0,2.7,0,.5,0,.784-.239.778-.637s-.292-.627-.8-.627q-2.667,0-5.333,0c-.536,0-.817.229-.812.646s.27.617.793.619C7090.288-20.489,7091.177-20.492,7092.065-20.492Zm-6.66,2.539c.592,0,1.183,0,1.775,0,.5-.006.781-.244.772-.647-.007-.388-.276-.617-.761-.619q-1.759-.009-3.516,0c-.5,0-.78.242-.771.646.007.387.278.614.762.62C7084.247-17.948,7084.826-17.953,7085.406-17.953Zm.013-5.072c.6,0,1.209,0,1.813,0,.452,0,.716-.236.722-.616a.634.634,0,0,0-.7-.644q-1.831-.011-3.663,0a.629.629,0,0,0-.684.624c-.006.383.259.63.7.635C7084.21-23.02,7084.815-23.025,7085.419-23.025Zm-.619,2.533c.6,0,1.208.006,1.813,0a.635.635,0,0,0,.71-.631.644.644,0,0,0-.719-.63q-1.813-.012-3.625,0a.646.646,0,0,0-.713.638c0,.369.279.617.722.622C7083.591-20.487,7084.2-20.492,7084.8-20.493Zm6.308,2.54h1.187c.459-.02.714-.242.717-.627s-.252-.633-.7-.639c-.79-.011-1.583-.011-2.373,0a.642.642,0,0,0-.71.641c.008.366.287.611.732.622C7090.34-17.946,7090.724-17.954,7091.107-17.953Zm-15.192-5.075c.222,0,.445.01.667,0a.613.613,0,0,0,.613-.574.6.6,0,0,0-.52-.659,10.2,10.2,0,0,0-1.479,0,.6.6,0,0,0-.521.657.613.613,0,0,0,.611.576C7075.5-23.018,7075.7-23.028,7075.915-23.028Zm.014,2.525v0c.234,0,.469.016.7,0a.6.6,0,0,0,.564-.581.572.572,0,0,0-.5-.635,9.917,9.917,0,0,0-1.548.007.562.562,0,0,0-.471.652.575.575,0,0,0,.547.555C7075.458-20.485,7075.693-20.5,7075.929-20.5Zm-.008-5.054c.222,0,.446.011.667,0a.616.616,0,0,0,.608-.619.616.616,0,0,0-.6-.632c-.444-.02-.89-.021-1.333,0a.615.615,0,0,0-.59.639.619.619,0,0,0,.617.611C7075.5-25.547,7075.711-25.557,7075.92-25.557Z" transform="translate(-7069.611 45.816)"/>
  </g>
</svg>
