<svg xmlns="http://www.w3.org/2000/svg" width="31.638" height="29.722" viewBox="0 0 31.638 29.722">
  <defs>
    <style>
      .cls-1 {
        opacity: 0.5;
      }

      .cls-2 {
        fill: #b9953d;
      }
    </style>
  </defs>
  <g id="Group_139" data-name="Group 139" class="cls-1">
    <path id="Path_110" data-name="Path 110" class="cls-2" d="M7181.758,592.645c-.083.39-.144.785-.251,1.168a6.48,6.48,0,0,1-12.724-1.619.942.942,0,0,1,1.049-1.077c.844,0,1.687,0,2.532,0,2.737,0,5.475.008,8.212-.006a1.1,1.1,0,0,1,1.182.733Z" transform="translate(-7150.121 -573.279)"/>
    <path id="Path_111" data-name="Path 111" class="cls-2" d="M6958.148,383.852c.057-.127.094-.22.139-.309q2.038-4.052,4.079-8.1a1,1,0,0,1,1.458-.584q3.188,1.158,6.375,2.322a.353.353,0,0,0,.448-.1,2.773,2.773,0,0,1,4.782,1.765c.018.233.128.287.3.349,2.117.767,4.23,1.542,6.351,2.3a1.419,1.419,0,0,1,.847.747q2.034,4.071,4.089,8.132c.049.1.094.2.162.344-.677,0-1.312.009-1.945-.011-.083,0-.187-.137-.237-.234q-1.416-2.793-2.821-5.592c-.05-.1-.105-.2-.18-.335-.072.126-.128.217-.176.312-.934,1.856-1.872,3.71-2.8,5.57a.458.458,0,0,1-.494.3c-.555-.018-1.111-.006-1.735-.006l1.948-3.877c.643-1.277,1.285-2.553,1.945-3.862-.112-.046-.212-.09-.314-.127q-2.68-.978-5.358-1.959a.362.362,0,0,0-.429.089,3.3,3.3,0,0,1-.731.5.41.41,0,0,0-.272.439q.011,7.462.005,14.924v1.859c.4.051.787.079,1.166.154a4.783,4.783,0,0,1,3.775,4.532.937.937,0,0,1-1.01,1.059q-4.85.009-9.7,0a.944.944,0,0,1-1.021-1.078,4.793,4.793,0,0,1,4.618-4.626c.092,0,.184,0,.322,0v-.342q0-8.235.006-16.469a.428.428,0,0,0-.289-.458,2.749,2.749,0,0,1-1.572-2.251.37.37,0,0,0-.184-.258c-1.446-.537-2.9-1.062-4.345-1.588a.778.778,0,0,0-.133-.014l3.3,6.48c-.4,0-.753,0-1.1,0-.319,0-.707.1-.937-.045s-.337-.543-.486-.835q-1.265-2.473-2.524-4.947c-.047-.091-.1-.179-.164-.3-.071.137-.125.241-.179.347q-1.388,2.756-2.77,5.514a.414.414,0,0,1-.441.279C6959.336,383.838,6958.761,383.852,6958.148,383.852Zm14.523-3.943a.918.918,0,0,0,.915-.926.927.927,0,1,0-1.853.024A.918.918,0,0,0,6972.671,379.909Z" transform="translate(-6956.842 -374.737)"/>
    <path id="Path_112" data-name="Path 112" class="cls-2" d="M6948.827,507.835h5.344a.964.964,0,0,1,1.106,1.117,6.49,6.49,0,0,1-12.895.849,6.19,6.19,0,0,1-.079-.922.938.938,0,0,1,1.024-1.043c1.555,0,3.11,0,4.665,0Z" transform="translate(-6942.303 -496.867)"/>
  </g>
</svg>
