<svg xmlns="http://www.w3.org/2000/svg" width="67.792" height="58.223" viewBox="0 0 67.792 58.223">
    <defs>
        <style>
            .cls-1{fill:#ebba43;stroke:transparent}
        </style>
    </defs>
    <g id="Group_124" data-name="Group 124" transform="translate(.522 .5)">
        <path id="Path_365" data-name="Path 365" class="cls-1" d="M1338.979 1066.211a31.1 31.1 0 0 1-.781 3.47c-2.316 6.73-7.048 10.574-14.074 11.635a.919.919 0 0 1-1.2-.7 12.65 12.65 0 0 0-.754-1.573 14.175 14.175 0 0 0 11.708-5.942 13.879 13.879 0 0 0 2.61-10.154 14.286 14.286 0 0 0-28.443 1.148c-.348-1.351-.811-3.107-1.243-4.87a1.391 1.391 0 0 1 .07-.794 16.668 16.668 0 0 1 32 4.491 1.363 1.363 0 0 0 .109.294z" transform="translate(-1272.21 -1048.055)"/>
        <path id="Path_366" data-name="Path 366" class="cls-1" d="M1331.142 1092.023a11.89 11.89 0 1 1 11.118 11.853 2.392 2.392 0 0 1-1.832-.876 18.648 18.648 0 0 0-7.2-5 1.805 1.805 0 0 1-.856-.78 11 11 0 0 1-1.23-5.197zm13.113 5.927a3.609 3.609 0 0 0 3.536-3.811c-.152-2.057-1.68-3.353-3.961-3.359-.651 0-1.3.017-1.954-.015a1.135 1.135 0 0 1-1.2-1.183 1.17 1.17 0 0 1 1.208-1.186c.542-.026 1.087.015 1.628-.013.936-.048 1.763.058 1.942 1.155h2.312a3.173 3.173 0 0 0-.638-2.031 3.773 3.773 0 0 0-2.935-1.53v-1.084h-2.361v1.06a.918.918 0 0 1-.166.066 3.583 3.583 0 1 0 .406 7.155c.695.007 1.39-.009 2.084.006a1.148 1.148 0 0 1 1.247 1.132 1.168 1.168 0 0 1-1.227 1.227c-.629.019-1.259.006-1.889 0-1.062 0-1.328-.18-1.7-1.15h-2.475a12.887 12.887 0 0 0 .84 2.018 3.458 3.458 0 0 0 2.877 1.535l.05 1.119h2.318c.024-.388.04-.729.057-1.11z" transform="translate(-1292.953 -1075.305)"/>
        <path id="Path_367" data-name="Path 367" class="cls-1" d="M1107.1 1099.949a11.906 11.906 0 0 1 23.666-1.85 11.389 11.389 0 0 1-.545 5.763 1.265 1.265 0 0 1-.672.667 19.059 19.059 0 0 0-9.26 6.865 1.048 1.048 0 0 1-.928.452 11.9 11.9 0 0 1-12.261-11.897zm11.9 7.108h2.344a2.206 2.206 0 0 0 .033-.429 1.121 1.121 0 0 1 .711-1.317 3.061 3.061 0 0 0 1.592-2.2 3.579 3.579 0 0 0-.806-3.16c.141-.211.267-.385.378-.569a3.441 3.441 0 0 0-.809-4.558c-.732-.518-1.361-.945-1.018-1.974h-2.438v1.092h-1.183v-1.1h-2.339l-.048 1.094a1.278 1.278 0 0 0-1.171 1.279q-.016 4.721 0 9.442a1.074 1.074 0 0 0 .732 1.122.566.566 0 0 1 .468.7 4.138 4.138 0 0 0 .039.572h2.316l.053-1.115H1119z" transform="translate(-1102.28 -1082.084)"/>
        <path id="Path_368" data-name="Path 368" class="cls-1" d="M1203.665 1208.051a16.695 16.695 0 1 1-16.609 17.426 16.651 16.651 0 0 1 16.609-17.426zm.081 2.382a14.284 14.284 0 1 0 14.286 14.3 14.293 14.293 0 0 0-14.286-14.3z" transform="translate(-1170.318 -1184.222)"/>
        <path id="Path_369" data-name="Path 369" class="cls-1" d="m1107.695 1076.121-2.426.209a14.143 14.143 0 0 0-3.411-13.558 13.656 13.656 0 0 0-9.607-4.48 14.3 14.3 0 1 0-1.3 28.573c-.28.716-.523 1.424-.848 2.093-.064.132-.452.181-.675.151a16.013 16.013 0 0 1-9.837-4.867c-4.58-4.847-6.014-10.575-3.925-16.9s6.655-10.116 13.219-11.242a16.612 16.612 0 0 1 19.148 14.689 14.854 14.854 0 0 1-.338 5.332z" transform="translate(-1074.731 -1054.703)"/>
        <path id="Path_370" data-name="Path 370" class="cls-1" d="m1314.2 1172.742-1.138-.157.324-3.525z" transform="translate(-1277.564 -1151.039)"/>
        <path id="Path_371" data-name="Path 371" class="cls-1" d="M1171.434 1146.291v-2.375c1.229 0 2.419-.035 3.606.013a1.177 1.177 0 0 1-.036 2.349c-1.167.047-2.337.013-3.57.013z" transform="translate(-1157.032 -1129.629)"/>
        <path id="Path_372" data-name="Path 372" class="cls-1" d="M1171.489 1176.021c1.232 0 2.422-.023 3.61.009a1.17 1.17 0 0 1 .008 2.332c-1.189.033-2.379.01-3.618.01z" transform="translate(-1157.079 -1156.956)"/>
        <path id="Path_373" data-name="Path 373" class="cls-1" d="M1242.943 1251.868a11.9 11.9 0 1 1-11.86-11.911 11.916 11.916 0 0 1 11.86 11.911zm-16.675 3.651a4.6 4.6 0 0 0 .4.828 385.952 385.952 0 0 0 3.276 4.375 1.227 1.227 0 0 0 2.187.012c.944-1.244 1.82-2.546 2.831-3.731a2.733 2.733 0 0 0 .525-2.92c-1.136-3.547-2.167-7.128-3.244-10.695-.216-.713-.646-1.09-1.221-1.052a1.255 1.255 0 0 0-1.173 1.037q-1.706 5.729-3.434 11.452c-.051.186-.079.38-.147.695z" transform="translate(-1197.633 -1211.377)"/>
        <path id="Path_374" data-name="Path 374" class="cls-1" d="M1286.575 1339.47c.569-.381 1.081-.742 1.613-1.069a.53.53 0 0 1 .456-.029c.552.334 1.082.705 1.656 1.088l-1.864 2.476z" transform="translate(-1255.024 -1295.101)"/>
        <path id="Path_375" data-name="Path 375" class="cls-1" d="m1290.96 1293.612 1.357 4.506a4.321 4.321 0 0 0-1.414-.54 4.586 4.586 0 0 0-1.452.537l1.352-4.507z" transform="translate(-1257.471 -1257.038)"/>
    </g>
</svg>
