<svg xmlns="http://www.w3.org/2000/svg" width="24" height="24" viewBox="0 0 24 24">
    <g data-name="percent_black_24dp (1)">
        <g data-name="Group 48">
            <path data-name="Rectangle 117" style="fill:none" d="M0 0h24v24H0z"/>
        </g>
        <g data-name="Group 50">
            <g data-name="Group 49">
                <path data-name="Path 356" d="M7.5 4A3.5 3.5 0 1 0 11 7.5 3.5 3.5 0 0 0 7.5 4zm0 5A1.5 1.5 0 1 1 9 7.5 1.5 1.5 0 0 1 7.5 9zm9 4a3.5 3.5 0 1 0 3.5 3.5 3.5 3.5 0 0 0-3.5-3.5zm0 5a1.5 1.5 0 1 1 1.5-1.5 1.5 1.5 0 0 1-1.5 1.5zm2.79-13.29a1 1 0 0 1 0 1.41L6.12 19.29a1 1 0 0 1-1.41-1.41L17.88 4.71a1 1 0 0 1 1.41 0z" transform="translate(.112)" style="fill:#fff"/>
            </g>
        </g>
    </g>
</svg>
