<svg id="price_check_black_24dp" xmlns="http://www.w3.org/2000/svg" width="24" height="24" viewBox="0 0 24 24">
    <defs>
        <style>
            .cls-2{fill:#fff}
        </style>
    </defs>
    <g id="Group_51" data-name="Group 51">
        <path id="Path_357" data-name="Path 357" d="M0 0h24v24H0z" style="fill:none"/>
    </g>
    <g id="Group_53" data-name="Group 53" transform="translate(4 3)">
        <g id="Group_52" data-name="Group 52">
            <path id="Path_358" data-name="Path 358" class="cls-2" d="M11 13V9a1 1 0 0 0-1-1H6V6h4a1 1 0 0 0 0-2H8.5a1 1 0 0 0-2 0H5a1 1 0 0 0-1 1v4a1 1 0 0 0 1 1h4v2H5a1 1 0 0 0 0 2h1.5a1 1 0 0 0 2 0H10a1 1 0 0 0 1-1z" transform="translate(-4 -3)"/>
            <path id="Path_359" data-name="Path 359" class="cls-2" d="m18.88 13.22-4.95 4.95-2.12-2.12a1 1 0 0 0-1.41 0 1 1 0 0 0 0 1.41l2.83 2.83a1 1 0 0 0 1.41 0l5.66-5.66a1 1 0 0 0 0-1.41 1.008 1.008 0 0 0-1.42 0z" transform="translate(-4 -3)"/>
        </g>
    </g>
</svg>
