<svg id="Bitcoin" xmlns="http://www.w3.org/2000/svg" width="41.49" height="41.495" viewBox="0 0 41.49 41.495">
  <defs>
    <style>
      .cls-1 {
        fill: #f7931a;
      }

      .cls-2 {
        fill: #fff;
      }
    </style>
  </defs>
  <path id="Path_339" data-name="Path 339" class="cls-1" d="M40.867,25.769A20.74,20.74,0,1,1,25.759.623,20.742,20.742,0,0,1,40.867,25.769Z" transform="translate(0.002 -0.002)"/>
  <path id="Path_340" data-name="Path 340" class="cls-2" d="M35.366,21.715c.413-2.761-1.689-4.245-4.563-5.235l.932-3.74-2.276-.567-.908,3.641c-.6-.149-1.213-.29-1.824-.429l.914-3.665-2.275-.567-.933,3.738c-.5-.113-.982-.224-1.454-.342l0-.012-3.139-.784-.606,2.431s1.689.387,1.653.411a1.211,1.211,0,0,1,1.061,1.324l-1.062,4.26a1.886,1.886,0,0,1,.237.076l-.241-.06L19.4,28.165a.829.829,0,0,1-1.043.541c.023.033-1.655-.413-1.655-.413L15.569,30.9l2.962.738c.551.138,1.091.283,1.623.419l-.942,3.782,2.274.567.933-3.742c.621.169,1.224.324,1.814.471l-.93,3.725,2.276.567.942-3.775c3.882.735,6.8.438,8.029-3.073.99-2.827-.049-4.457-2.092-5.521a3.63,3.63,0,0,0,2.907-3.342Zm-5.2,7.293c-.7,2.827-5.463,1.3-7.006.915l1.25-5.011C25.952,25.3,30.9,26.061,30.165,29.009Zm.7-7.334c-.642,2.571-4.6,1.265-5.888.945l1.133-4.545C27.4,18.394,31.537,18.992,30.869,21.674Z" transform="translate(-5.473 -3.924)"/>
</svg>
