<svg id="Uniswap_Logo" xmlns="http://www.w3.org/2000/svg" width="26.33" height="30.32" viewBox="0 0 26.33 30.32">
  <defs>
    <style>
      .cls-1, .cls-2 {
        fill: #fff;
      }

      .cls-2 {
        fill-rule: evenodd;
      }
    </style>
  </defs>
  <path id="Path_330" data-name="Path 330" class="cls-1" d="M219.781,121.619c-.327-.051-.341-.057-.187-.08a5.08,5.08,0,0,1,1.472.131,6.357,6.357,0,0,1,3.229,2.161l.289.322.414-.067a8.729,8.729,0,0,1,5,.628,6.467,6.467,0,0,1,1.132.66,1.749,1.749,0,0,1,.1.44,2.739,2.739,0,0,1-.168,1.708.448.448,0,0,0-.047.494.477.477,0,0,0,.427.27c.369,0,.765-.6.949-1.425l.073-.329.145.164a6.359,6.359,0,0,1,1.524,3l.028.227-.133-.207a2.553,2.553,0,0,0-.755-.794,4.774,4.774,0,0,0-2.586-.551,10.514,10.514,0,0,1-2.864-.432c-1.285-.419-1.933-.977-3.46-2.981a14.61,14.61,0,0,0-1.514-1.779A5.414,5.414,0,0,0,219.781,121.619Z" transform="translate(-209.449 -114.718)"/>
  <path id="Path_331" data-name="Path 331" class="cls-1" d="M396.9,131.61a3.622,3.622,0,0,1,.277-1.349,1.455,1.455,0,0,1,.134-.259.884.884,0,0,1-.062.233,3.065,3.065,0,0,0-.056,1.38c.1.7.162.805.906,1.566.349.357.755.806.9,1l.268.351-.268-.251a11.419,11.419,0,0,0-1.246-.991c-.111-.057-.128-.056-.2.012s-.077.158-.085.606a3.385,3.385,0,0,1-.339,1.594c-.124.242-.144.191-.031-.083a2.182,2.182,0,0,0,.092-.97c0-1.358-.162-1.684-1.108-2.243-.24-.142-.634-.346-.877-.454a3.31,3.31,0,0,1-.428-.209,9.131,9.131,0,0,1,1.319.385c.552.212.643.24.71.214C396.86,132.126,396.882,131.995,396.9,131.61Z" transform="translate(-374.92 -122.723)"/>
  <path id="Path_332" data-name="Path 332" class="cls-1" d="M219.055,137.99a5.53,5.53,0,0,1-.986-3.364l.028-.324.151.028a3.8,3.8,0,0,1,1,.373c.629.382.9.885,1.178,2.177.081.378.188.806.237.951a6.437,6.437,0,0,0,.619,1.132c.175.255.059.376-.327.341A3.141,3.141,0,0,1,219.055,137.99Z" transform="translate(-208.088 -126.78)"/>
  <path id="Path_333" data-name="Path 333" class="cls-1" d="M347.468,243.24c-3.1-1.25-4.2-2.335-4.2-4.165a2.962,2.962,0,0,1,.021-.49,2.377,2.377,0,0,1,.267.2c.629.5,1.334.72,3.286,1.005a13.589,13.589,0,0,1,2.39.5,4.56,4.56,0,0,1,3.346,3.64,6,6,0,0,1-.1,1.95,3.748,3.748,0,0,1-.505,1.131c-.023.008-.046-.082-.052-.2a2.516,2.516,0,0,0-.915-1.763A12.543,12.543,0,0,0,347.468,243.24Z" transform="translate(-326.29 -225.224)"/>
  <path id="Path_334" data-name="Path 334" class="cls-1" d="M267.711,315.929a5.509,5.509,0,0,0-.15-.657l-.079-.236.147.165a2.647,2.647,0,0,1,.5.91,1.976,1.976,0,0,1,.115.869,1.944,1.944,0,0,1-.11.841,2.66,2.66,0,0,1-.655,1.042,3.732,3.732,0,0,1-2.348,1.029c-.183.023-.716.062-1.184.086a9.225,9.225,0,0,0-2.656.434.559.559,0,0,1-.2.048,3.671,3.671,0,0,1,.84-.5,8.093,8.093,0,0,1,2.34-.618c.61-.1,1.24-.225,1.4-.274A2.681,2.681,0,0,0,267.711,315.929Z" transform="translate(-248.712 -297.394)"/>
  <path id="Path_335" data-name="Path 335" class="cls-1" d="M397.964,330.658a3.6,3.6,0,0,1-.281-2.541c.024-.085.063-.155.086-.155a.84.84,0,0,1,.216.117c.19.128.571.344,1.587.9a7.857,7.857,0,0,1,2.481,1.837,4,4,0,0,1,.825,1.888,6.433,6.433,0,0,1-.078,1.858,4.613,4.613,0,0,1-2.262,3,2.881,2.881,0,0,1-.33.164,1.23,1.23,0,0,1,.134-.341,3.065,3.065,0,0,0,.136-2.427,10.31,10.31,0,0,0-1.258-2.255A15.243,15.243,0,0,1,397.964,330.658Z" transform="translate(-377.543 -309.596)"/>
  <path id="Path_336" data-name="Path 336" class="cls-1" d="M190.738,429.054a8.4,8.4,0,0,1,3.891-1.876,6.07,6.07,0,0,1,2.021.078,3.464,3.464,0,0,1,1.971,1.263,4.553,4.553,0,0,1,.712,2.124c.067.426.14.854.162.951a2.107,2.107,0,0,0,.682,1.233,2.354,2.354,0,0,0,2.154.057,1.077,1.077,0,0,1,.271-.084,2.458,2.458,0,0,1-.68.455,2.31,2.31,0,0,1-1.126.274,2.253,2.253,0,0,1-1.91-1.17,9.312,9.312,0,0,1-.515-1.028c-.554-1.263-.827-1.647-1.47-2.068a1.9,1.9,0,0,0-1.823-.166,1.181,1.181,0,0,0-.4,1.838,1.581,1.581,0,0,0,.891.466.951.951,0,0,0,1.076-.953.742.742,0,0,0-.513-.762c-.5-.226-1.041.038-1.038.509a.422.422,0,0,0,.29.418c.129.059.132.063.027.041a.575.575,0,0,1-.2-1.018,1.131,1.131,0,0,1,1.678.357,1.557,1.557,0,0,1,.032,1.063,1.467,1.467,0,0,1-1.777.846,2.469,2.469,0,0,1-1.36-.924,4.2,4.2,0,0,0-3.087-1.587l-.3-.047Z" transform="translate(-181.975 -403.209)"/>
  <path id="Path_337" data-name="Path 337" class="cls-2" d="M40.576.672c3.643,4.422,9.26,11.306,9.539,11.692.23.318.144.6-.251.829a2.391,2.391,0,0,1-.9.251,1.149,1.149,0,0,1-.753-.322c-.148-.14-.746-1.033-2.125-3.174-1.056-1.638-1.939-3-1.963-3.02-.056-.053-.055-.051,1.856,3.367a29.537,29.537,0,0,1,1.6,3.007c0,.206-.056.315-.311.6a3.463,3.463,0,0,0-.751,2.107,6.6,6.6,0,0,1-1.782,3.6,7.124,7.124,0,0,0-.992,1.386,2.556,2.556,0,0,0-.309,1.252,3.9,3.9,0,0,0,.206,1.54,5.514,5.514,0,0,0,.746,1.477,3.43,3.43,0,0,1,.575,1.149c0,.131.025.131.59,0a6.125,6.125,0,0,0,3.068-1.5,1.418,1.418,0,0,0,.475-1.19,1.162,1.162,0,0,0-.11-.652A2.864,2.864,0,0,0,47.893,22a2.483,2.483,0,0,1-1.305-1.682,2.916,2.916,0,0,1,.48-1.874,5.672,5.672,0,0,0,.685-2.467c.052-.66.125-.921.315-1.129a1.181,1.181,0,0,1,.865-.359,2.942,2.942,0,0,0,1.724-.7,1.5,1.5,0,0,0,.537-1.14l.018-.367-.2-.236C50.276,11.194,40.084,0,40.039,0,40.03,0,40.271.3,40.576.672Zm4.8,22.242a.649.649,0,0,0-.2-.856c-.262-.174-.669-.092-.669.135,0,.069.038.12.125.164.145.075.156.159.042.331s-.106.327.026.431A.456.456,0,0,0,45.38,22.914Z" transform="translate(-40.039)"/>
  <path id="Path_338" data-name="Path 338" class="cls-2" d="M233.614,261.654a1.408,1.408,0,0,0-.852.929,1.323,1.323,0,0,0,.073.837c.166.222.327.281.763.278.853-.006,1.595-.372,1.681-.829a1.22,1.22,0,0,0-.7-1.123A1.669,1.669,0,0,0,233.614,261.654Zm1,.78a.346.346,0,0,0-.15-.526c-.426-.26-1.071-.045-1.071.358,0,.2.336.419.644.419A.832.832,0,0,0,234.612,262.434Z" transform="translate(-221.938 -246.968)"/>
</svg>
